# xmcd CD database file
#
# Track frame offsets:
#	150
#	11878
#	24922
#	39891
#	51118
#
# Disc length: 867 seconds
#
# Revision: 0
# Processed by: cddbd v1.5.1PL2 Copyright (c) Steve Scherf et al.
# Submitted via: CDex 1.51
#
DISCID=30036105
DTITLE=Daisy May - Say It To My Face
DYEAR=2005
DGENRE=Country
TTITLE0=Losin' My Blues Tonight
TTITLE1=This Is Rodeo
TTITLE2=Say It To My Face
TTITLE3=Just Dreaming
TTITLE4=Move It On Over
EXTD=YEAR: 2005
EXTT0=
EXTT1=
EXTT2=
EXTT3=
EXTT4=
PLAYORDER=
